HIERARCHY
ROOT Hips
{
	OFFSET -3.958830 18.904000 13.208200
	CHANNELS 6 Xposition Yposition Zposition Zrotation Yrotation Xrotation 
	JOINT LHipJoint
	{
		OFFSET 0.000000 0.000000 0.000000
		CHANNELS 3 Zrotation Yrotation Xrotation
		JOINT LeftUpLeg
		{
			OFFSET 1.800000 -1.400000 0.085000
			CHANNELS 3 Zrotation Yrotation Xrotation
			JOINT LeftLeg
			{
				OFFSET 2.215000 -6.000000 0.000000
				CHANNELS 3 Zrotation Yrotation Xrotation
				JOINT LeftFoot
				{
					OFFSET 2.500000 -6.900000 0.000000
					CHANNELS 3 Zrotation Yrotation Xrotation
					JOINT LeftToeBase
					{
						OFFSET 0.200000 -0.500000 1.950000
						CHANNELS 3 Zrotation Yrotation Xrotation
						End Site
						{
							OFFSET 0.000000 0.000000 0.000000
						}
					}
				}
			}
		}
	}
	JOINT RHipJoint
	{
		OFFSET 0.000000 0.000000 0.000000
		CHANNELS 3 Zrotation Yrotation Xrotation
		JOINT RightUpLeg
		{
			OFFSET -1.800000 -1.400000 0.085000
			CHANNELS 3 Zrotation Yrotation Xrotation
			JOINT RightLeg
			{
				OFFSET -2.215000 -6.000000 0.000000
				CHANNELS 3 Zrotation Yrotation Xrotation
				JOINT RightFoot
				{
					OFFSET -2.500000 -6.900000 0.000000
					CHANNELS 3 Zrotation Yrotation Xrotation
					JOINT RightToeBase
					{
						OFFSET -0.200000 -0.500000 1.950000
						CHANNELS 3 Zrotation Yrotation Xrotation
						End Site
						{
							OFFSET 0.000000 0.000000 0.000000
						}
					}
				}
			}
		}
	}
	JOINT LowerBack
	{
		OFFSET 0.000000 0.000000 0.000000
		CHANNELS 3 Zrotation Yrotation Xrotation
		JOINT Spine
		{
			OFFSET -0.087000 1.940000 -0.288900
			CHANNELS 3 Zrotation Yrotation Xrotation
			JOINT Spine1
			{
				OFFSET 0.000000 1.950000 0.060000
				CHANNELS 3 Zrotation Yrotation Xrotation
				JOINT Neck
				{
					OFFSET 0.000000 0.000000 0.000000
					CHANNELS 3 Zrotation Yrotation Xrotation
					JOINT Neck1
					{
						OFFSET 0.000000 1.600000 0.340000
						CHANNELS 3 Zrotation Yrotation Xrotation
						JOINT Head
						{
							OFFSET 0.000000 1.667000 -0.240000
							CHANNELS 3 Zrotation Yrotation Xrotation
							End Site
							{
								OFFSET 0.000000 0.000000 0.000000
							}
						}
					}
				}
				JOINT LeftShoulder
				{
					OFFSET 0.000000 0.000000 0.000000
					CHANNELS 3 Zrotation Yrotation Xrotation
					JOINT LeftArm
					{
						OFFSET 2.700000 1.550000 -0.730000
						CHANNELS 3 Zrotation Yrotation Xrotation
						JOINT LeftForeArm
						{
							OFFSET 5.450000 0.000000 0.000000
							CHANNELS 3 Zrotation Yrotation Xrotation
							JOINT LeftHand
							{
								OFFSET 3.450000 0.000000 0.000000
								CHANNELS 3 Zrotation Yrotation Xrotation
								JOINT LeftHandIndex1
								{
									OFFSET 0.750000 0.000000 0.000000
									CHANNELS 3 Zrotation Yrotation Xrotation
									End Site
									{
										OFFSET 0.000000 0.000000 0.000000
									}
								}
							}
						}
					}
				}
				JOINT RightShoulder
				{
					OFFSET 0.000000 0.000000 0.000000
					CHANNELS 3 Zrotation Yrotation Xrotation
					JOINT RightArm
					{
						OFFSET -2.700000 1.550000 -0.730000
						CHANNELS 3 Zrotation Yrotation Xrotation
						JOINT RightForeArm
						{
							OFFSET -5.450000 0.000000 0.000000
							CHANNELS 3 Zrotation Yrotation Xrotation
							JOINT RightHand
							{
								OFFSET -3.450000 0.000000 0.000000
								CHANNELS 3 Zrotation Yrotation Xrotation
								JOINT RightHandIndex1
								{
									OFFSET -0.750000 0.000000 0.000000
									CHANNELS 3 Zrotation Yrotation Xrotation
									End Site
									{
										OFFSET 0.000000 0.000000 0.000000
									}
								}
							}
						}
					}
				}
			}
		}
	}
}
MOTION
Frames: 4
Frame Time: 0.016667
-0.693680 13.824280 0.006850 -54.306335 -11.818181 -11.162868 -15.261294 12.763815 4.338806 3.455693 -4.416500 -30.967763 -9.000423 18.905026 57.983501 1.046714 11.554312 0.240776 0.263680 0.020280 0.586740 18.232726 -10.133683 2.982007 3.243735 9.598504 -2.742904 -4.270352 -8.538055 71.750879 -2.140438 -10.535467 0.708705 -0.130090 -0.255770 0.190390 -3.265729 -2.203094 -8.595913 2.166296 5.184246 60.032832 -8.671291 12.137054 14.506218 5.080132 -0.380265 -23.226579 -6.465693 9.367689 48.530831 8.759960 9.187950 -19.130180 -15.167725 -29.980688 10.624648 -14.851912 -4.829772 -2.153761 12.545035 -3.452607 -1.235081 -3.541074 2.767893 0.949140 -0.339140 0.467450 -0.188660 5.658390 35.892742 15.996389 10.816877 -7.715390 -13.454227 -2.895156 33.263938 -0.243103 1.917725 -1.357670 -0.167100 -0.015280 -0.011040 -0.288030 
-0.711170 13.787420 0.070370 -55.853681 -13.718305 -11.269490 -15.252345 12.660890 4.149062 4.456661 -3.233275 -31.334699 -7.842085 19.240595 59.472589 1.099105 11.820303 0.189793 0.275490 0.036400 0.588810 18.287053 -9.915152 3.271714 4.450372 11.625625 -5.100384 -2.768316 -9.841909 74.777528 -2.264355 -11.033780 0.593283 -0.108380 -0.222410 0.166660 -3.362873 -2.070139 -8.668188 4.144241 4.053442 58.317962 -9.914379 11.856914 15.817496 5.720090 -0.760153 -23.085960 -6.900422 9.665229 47.625845 7.419960 9.245130 -18.096400 -14.325654 -29.359341 10.804621 -17.107386 -3.941667 -2.111634 12.904191 -3.255426 -1.217280 -3.529393 2.763156 0.923240 -0.318090 0.445920 -0.156810 3.225167 35.564436 15.794820 11.126297 -6.753233 -13.587565 -5.314453 32.905772 -0.826536 1.927793 -1.371499 -0.183760 0.029820 -0.030300 -0.275680 
-0.710480 13.779210 0.145980 -56.004332 -14.284559 -13.107977 -15.254305 12.518878 3.860919 4.002568 -2.580558 -30.744614 -5.229403 19.313123 62.768252 1.172311 12.255445 0.056228 0.248790 -0.012040 0.602130 18.337018 -9.560072 3.713538 3.359466 14.935665 -9.138477 2.841798 -15.351002 79.230642 -2.542735 -12.211480 0.251108 -0.123790 -0.234810 0.162070 -3.466141 -1.965856 -8.825904 4.794351 3.670120 58.608952 -11.015163 11.383771 15.310001 5.893877 0.226191 -22.939104 -4.798390 9.279709 49.258703 6.794370 9.736480 -17.941340 -13.765654 -29.051420 10.984926 -18.236929 -2.967833 -2.030392 12.596035 -2.844948 -1.114229 -3.538415 2.723930 0.957520 -0.323700 0.447410 -0.186270 1.988020 34.395091 15.435028 11.126991 -6.016676 -13.465489 -7.848586 32.280614 -1.275355 1.972902 -1.322785 -0.213350 0.031980 -0.005900 -0.306200 
-0.675850 13.755620 0.237750 -56.412471 -14.152637 -15.619760 -15.238259 12.347519 3.494795 2.790195 -2.229920 -30.312140 -0.629703 18.056531 67.218053 1.279440 12.558653 -0.015070 0.260340 0.002300 0.627350 18.404826 -9.069395 4.349516 0.460795 18.690840 -14.004572 12.171023 -24.551191 81.858196 -3.005267 -13.916705 -0.164756 -0.131210 -0.260790 0.152310 -3.637625 -1.936694 -9.029684 6.619364 1.968372 60.128434 -12.528417 9.966143 14.018326 6.334548 0.834578 -22.991119 -3.979141 9.555130 52.390441 5.640900 10.355100 -17.372050 -14.306573 -28.959521 11.398049 -19.002361 -1.062942 -2.025105 11.364126 -3.323923 -0.947545 -3.484187 2.681550 0.972390 -0.336480 0.474020 -0.184890 1.484583 33.521038 14.610195 10.116328 -5.372473 -14.644686 -12.620335 33.352843 -2.413354 2.028028 -1.334032 -0.203370 0.040380 -0.024730 -0.311070 
